<svg width="10" height="10" viewBox="0 0 10 10" fill="none" xmlns="http://www.w3.org/2000/svg">
<g id="place_24px">
<path id="icon/maps/place_24px" fill-rule="evenodd" clip-rule="evenodd" d="M5.00004 0.833333C3.38754 0.833333 2.08337 2.1375 2.08337 3.75C2.08337 5.9375 5.00004 9.16667 5.00004 9.16667C5.00004 9.16667 7.91671 5.9375 7.91671 3.75C7.91671 2.1375 6.61254 0.833333 5.00004 0.833333ZM2.91671 3.75C2.91671 2.6 3.85004 1.66667 5.00004 1.66667C6.15004 1.66667 7.08337 2.6 7.08337 3.75C7.08337 4.95 5.88337 6.74583 5.00004 7.86667C4.13337 6.75417 2.91671 4.9375 2.91671 3.75ZM3.95837 3.75C3.95837 3.1747 4.42474 2.70833 5.00004 2.70833C5.37219 2.70833 5.71607 2.90687 5.90215 3.22917C6.08823 3.55146 6.08823 3.94854 5.90215 4.27083C5.71607 4.59313 5.37219 4.79167 5.00004 4.79167C4.42474 4.79167 3.95837 4.3253 3.95837 3.75Z" fill="black" fill-opacity="0.54"/>
</g>
</svg>
