<svg width="10" height="10" viewBox="0 0 10 10" fill="none" xmlns="http://www.w3.org/2000/svg">
<g id="query_builder_24px">
<path id="icon/action/query_builder_24px" fill-rule="evenodd" clip-rule="evenodd" d="M4.99587 0.833333C2.69587 0.833333 0.833374 2.7 0.833374 5C0.833374 7.3 2.69587 9.16667 4.99587 9.16667C7.30004 9.16667 9.16671 7.3 9.16671 5C9.16671 2.7 7.30004 0.833333 4.99587 0.833333ZM5.00004 8.33333C3.15837 8.33333 1.66671 6.84167 1.66671 5C1.66671 3.15833 3.15837 1.66667 5.00004 1.66667C6.84171 1.66667 8.33337 3.15833 8.33337 5C8.33337 6.84167 6.84171 8.33333 5.00004 8.33333ZM4.58337 2.91667H5.20837V5.10417L7.08337 6.21667L6.77087 6.72917L4.58337 5.41667V2.91667Z" fill="black" fill-opacity="0.54"/>
</g>
</svg>
